<?xml version="1.0" encoding="utf-8"?>
<!-- Generator: Adobe Illustrator 21.0.0, SVG Export Plug-In . SVG Version: 6.00 Build 0)  -->
<svg version="1.1" id="Calque_1" xmlns="http://www.w3.org/2000/svg" xmlns:xlink="http://www.w3.org/1999/xlink" x="0px" y="0px"
	 viewBox="0 0 213.7 222" style="enable-background:new 0 0 213.7 222;" xml:space="preserve">
<style type="text/css">
	.st0{fill:#42364B;}
	.st1{fill:#F39200;}
	.st2{fill:#685777;}
	.st3{fill:#281C2C;}
	.st4{fill:#FFFFFF;}
	.st5{fill:#89739D;}
</style>
<polygon class="st0" points="64.6,110.9 55.5,84.9 46.6,110.9 "/>
<g>
	<polygon class="st1" points="55.5,84.9 51.9,95.5 58.4,93.2 	"/>
</g>
<polygon class="st0" points="144.7,110.9 153.8,84.9 162.7,110.9 "/>
<g>
	<polygon class="st1" points="153.8,84.9 157.5,95.5 150.9,93.2 	"/>
</g>
<polygon class="st2" points="104.6,201.4 136.9,154.9 72.4,154.9 "/>
<polygon class="st1" points="119.4,154.9 104.7,196.4 90,154.9 "/>
<polygon class="st2" points="137.7,121.7 104.4,26.6 71.6,121.7 "/>
<polygon class="st3" points="119.4,113.4 89.9,113.4 104.5,26.6 "/>
<polygon class="st4" points="107.4,91.8 102,91.8 104.6,73.6 "/>
<polygon class="st2" points="18.2,118.1 72.4,154.9 104.7,88.8 "/>
<polygon class="st2" points="191.2,118.1 136.9,154.9 104.7,88.8 "/>
<polygon class="st0" points="104.7,88.8 72.4,154.9 136.9,154.9 "/>
<polygon class="st4" points="107.4,142.9 102,142.9 104.6,173.7 "/>
<polygon class="st3" points="104.7,145 118.7,135.1 90.6,135.1 "/>
<polygon class="st3" points="114.5,152.8 130.6,141.8 118.8,138.9 "/>
<polygon class="st3" points="94.8,152.8 78.7,141.8 90.5,138.9 "/>
<polygon class="st5" points="130.6,141.7 104.7,135.5 116.2,94.3 "/>
<polygon class="st5" points="78.7,141.7 104.7,135.5 93.1,94.3 "/>
<path class="st2" d="M104.7,114.4"/>
</svg>
