<?xml version="1.0" encoding="utf-8"?>
<!-- Generator: Adobe Illustrator 21.0.0, SVG Export Plug-In . SVG Version: 6.00 Build 0)  -->
<svg version="1.1" id="Calque_1" xmlns="http://www.w3.org/2000/svg" xmlns:xlink="http://www.w3.org/1999/xlink" x="0px" y="0px"
	 viewBox="0 0 213.7 222" style="enable-background:new 0 0 213.7 222;" xml:space="preserve">
<style type="text/css">
	.st0{fill:#95817B;}
	.st1{fill:#CAB5AD;}
	.st2{fill:#685777;}
	.st3{fill:#281C2C;}
	.st4{fill:#FFFFFF;}
	.st5{fill:#4F425F;}
</style>
<polygon class="st0" points="106.8,17.1 67.6,93.5 146.1,93.5 "/>
<polygon class="st1" points="106.8,28.3 71.9,95.8 141.8,95.8 "/>
<polygon class="st2" points="106.8,64.5 87.4,94 126.3,94 "/>
<polygon class="st3" points="106.8,142.9 146.1,93.3 67.6,93.3 "/>
<polygon class="st3" points="98.1,34.3 115.7,34.3 106.8,17.1 "/>
<polygon class="st4" points="114.7,51 123.7,55.3 115.8,40 "/>
<polygon class="st4" points="115.5,104.7 106.8,114.1 98.2,104.7 "/>
<polygon class="st3" points="40.9,179.7 87.4,169.2 56.5,144.4 "/>
<polygon class="st3" points="41.1,179.7 51.7,204.9 54.9,170.5 "/>
<polygon class="st5" points="94.9,118.3 87.4,169.2 56.5,144.4 "/>
<polygon class="st3" points="83.4,126.1 92.2,136.9 94.9,118.3 "/>
<polygon class="st3" points="173.1,179.7 126.6,169.2 157.5,144.4 "/>
<polygon class="st3" points="172.9,179.7 162.3,204.9 159.1,170.5 "/>
<polygon class="st5" points="119.1,118.3 126.6,169.2 157.5,144.4 "/>
<polygon class="st3" points="130.6,126.1 121.8,136.9 119.1,118.3 "/>
<polygon class="st3" points="25.5,124.3 52.7,136.9 49.7,104.3 "/>
<polygon class="st3" points="25.6,124.3 36.9,138.1 32.8,126.9 "/>
<polygon class="st5" points="87.4,112.2 52.7,136.9 49.7,104.3 "/>
<polygon class="st3" points="70.7,108.7 79,118.1 87.4,112.2 "/>
<polygon class="st3" points="188.2,124.3 161,136.9 164,104.3 "/>
<polygon class="st3" points="188.1,124.3 176.8,138.1 180.9,126.9 "/>
<polygon class="st5" points="126.3,112.2 161,136.9 164,104.3 "/>
<polygon class="st3" points="143,108.7 134.7,118.1 126.3,112.2 "/>
</svg>
